<?xml version="1.0" encoding="UTF-8" standalone="no"?><svg xmlns="http://www.w3.org/2000/svg" xmlns:xlink="http://www.w3.org/1999/xlink" contentScriptType="application/ecmascript" contentStyleType="text/css" height="781px" preserveAspectRatio="none" style="width:1583px;height:781px;" version="1.1" viewBox="0 0 1583 781" width="1583px" zoomAndPan="magnify"><defs><filter height="300%" id="f1iobwrl6716as" width="300%" x="-1" y="-1"><feGaussianBlur result="blurOut" stdDeviation="2.0"/><feColorMatrix in="blurOut" result="blurOut2" type="matrix" values="0 0 0 0 0 0 0 0 0 0 0 0 0 0 0 0 0 0 .4 0"/><feOffset dx="4.0" dy="4.0" in="blurOut2" result="blurOut3"/><feBlend in="SourceGraphic" in2="blurOut3" mode="normal"/></filter></defs><g><!--MD5=[a70b0d373322012744ecc119c63f921b]
cluster main--><polygon fill="#FFFFFF" filter="url(#f1iobwrl6716as)" points="14,124,59,124,66,146.2969,1561,146.2969,1561,769,14,769,14,124" style="stroke: #000000; stroke-width: 1.5;"/><line style="stroke: #000000; stroke-width: 1.5;" x1="14" x2="66" y1="146.2969" y2="146.2969"/><text fill="#000000" font-family="sans-serif" font-size="14" font-weight="bold" lengthAdjust="spacingAndGlyphs" textLength="39" x="18" y="138.9951">main</text><!--MD5=[857233cdc7018b1e8695fe78ce49561f]
cluster __builtin__--><polygon fill="#FFFFFF" filter="url(#f1iobwrl6716as)" points="255,16,313,16,320,38.2969,422,38.2969,422,99,255,99,255,16" style="stroke: #000000; stroke-width: 1.5;"/><line style="stroke: #000000; stroke-width: 1.5;" x1="255" x2="320" y1="38.2969" y2="38.2969"/><text fill="#000000" font-family="sans-serif" font-size="14" font-weight="bold" lengthAdjust="spacingAndGlyphs" text-decoration="underline" textLength="52" x="259" y="30.9951">builtin</text><!--MD5=[97684287263f91a043c8b091e36e03f4]
class main.CliFlags--><rect fill="#FEFECE" filter="url(#f1iobwrl6716as)" height="124.8281" id="main.CliFlags" style="stroke: #A80036; stroke-width: 1.5;" width="166" x="485" y="183"/><ellipse cx="541.25" cy="199" fill="#7FFFD4" rx="11" ry="11" style="stroke: #A80036; stroke-width: 1.0;"/><path d="M540.4844,199.5625 Q538.625,198.8594 537.9766,198.0859 Q537.3281,197.3125 537.3281,196 Q537.3281,194.3125 538.4063,193.3438 Q539.4844,192.375 541.3594,192.375 Q542.2188,192.375 543.0703,192.5703 Q543.9219,192.7656 544.7656,193.1563 L544.7656,195.5469 Q543.9844,194.9844 543.1641,194.6953 Q542.3438,194.4063 541.5469,194.4063 Q540.6719,194.4063 540.1953,194.7656 Q539.7188,195.125 539.7188,195.7813 Q539.7188,196.2969 540.0625,196.6328 Q540.4063,196.9688 541.5,197.375 L542.5625,197.7813 Q544.0469,198.3281 544.7578,199.2344 Q545.4688,200.1406 545.4688,201.5156 Q545.4688,203.3906 544.3594,204.3125 Q543.25,205.2344 541,205.2344 Q540.0781,205.2344 539.1563,205.0156 Q538.2344,204.7969 537.375,204.375 L537.375,201.8438 Q538.3438,202.5313 539.2656,202.875 Q540.1875,203.2188 541.0781,203.2188 Q541.9844,203.2188 542.4844,202.8047 Q542.9844,202.3906 542.9844,201.6563 Q542.9844,201.0938 542.6484,200.6797 Q542.3125,200.2656 541.6875,200.0156 L540.4844,199.5625 Z "/><text fill="#000000" font-family="sans-serif" font-size="12" lengthAdjust="spacingAndGlyphs" textLength="45" x="561.75" y="203.1543">CliFlags</text><line style="stroke: #A80036; stroke-width: 1.5;" x1="486" x2="650" y1="215" y2="215"/><ellipse cx="496" cy="226" fill="none" rx="3" ry="3" style="stroke: #038048; stroke-width: 1.0;"/><text fill="#000000" font-family="sans-serif" font-size="11" lengthAdjust="spacingAndGlyphs" textLength="101" x="505" y="229.2104">ShowVersion bool</text><ellipse cx="496" cy="238.8047" fill="none" rx="3" ry="3" style="stroke: #038048; stroke-width: 1.0;"/><text fill="#000000" font-family="sans-serif" font-size="11" lengthAdjust="spacingAndGlyphs" textLength="102" x="505" y="242.0151">ShowAuthors bool</text><ellipse cx="496" cy="251.6094" fill="none" rx="3" ry="3" style="stroke: #038048; stroke-width: 1.0;"/><text fill="#000000" font-family="sans-serif" font-size="11" lengthAdjust="spacingAndGlyphs" textLength="134" x="505" y="254.8198">ShowConfiguration bool</text><ellipse cx="496" cy="264.4141" fill="none" rx="3" ry="3" style="stroke: #038048; stroke-width: 1.0;"/><text fill="#000000" font-family="sans-serif" font-size="11" lengthAdjust="spacingAndGlyphs" textLength="140" x="505" y="267.6245">PrintSummaryTable bool</text><ellipse cx="496" cy="277.2188" fill="none" rx="3" ry="3" style="stroke: #038048; stroke-width: 1.0;"/><text fill="#000000" font-family="sans-serif" font-size="11" lengthAdjust="spacingAndGlyphs" textLength="74" x="505" y="280.4292">Output string</text><ellipse cx="496" cy="290.0234" fill="none" rx="3" ry="3" style="stroke: #038048; stroke-width: 1.0;"/><text fill="#000000" font-family="sans-serif" font-size="11" lengthAdjust="spacingAndGlyphs" textLength="139" x="505" y="293.2339">CheckS3Connection bool</text><line style="stroke: #A80036; stroke-width: 1.5;" x1="486" x2="650" y1="299.8281" y2="299.8281"/><!--MD5=[cb68d22dbf2d23df90ebee5ee66e8d0e]
class main.ConfigStruct--><rect fill="#FEFECE" filter="url(#f1iobwrl6716as)" height="86.4141" id="main.ConfigStruct" style="stroke: #A80036; stroke-width: 1.5;" width="194" x="686" y="202.5"/><ellipse cx="740.75" cy="218.5" fill="#7FFFD4" rx="11" ry="11" style="stroke: #A80036; stroke-width: 1.0;"/><path d="M739.9844,219.0625 Q738.125,218.3594 737.4766,217.5859 Q736.8281,216.8125 736.8281,215.5 Q736.8281,213.8125 737.9063,212.8438 Q738.9844,211.875 740.8594,211.875 Q741.7188,211.875 742.5703,212.0703 Q743.4219,212.2656 744.2656,212.6563 L744.2656,215.0469 Q743.4844,214.4844 742.6641,214.1953 Q741.8438,213.9063 741.0469,213.9063 Q740.1719,213.9063 739.6953,214.2656 Q739.2188,214.625 739.2188,215.2813 Q739.2188,215.7969 739.5625,216.1328 Q739.9063,216.4688 741,216.875 L742.0625,217.2813 Q743.5469,217.8281 744.2578,218.7344 Q744.9688,219.6406 744.9688,221.0156 Q744.9688,222.8906 743.8594,223.8125 Q742.75,224.7344 740.5,224.7344 Q739.5781,224.7344 738.6563,224.5156 Q737.7344,224.2969 736.875,223.875 L736.875,221.3438 Q737.8438,222.0313 738.7656,222.375 Q739.6875,222.7188 740.5781,222.7188 Q741.4844,222.7188 741.9844,222.3047 Q742.4844,221.8906 742.4844,221.1563 Q742.4844,220.5938 742.1484,220.1797 Q741.8125,219.7656 741.1875,219.5156 L739.9844,219.0625 Z "/><text fill="#000000" font-family="sans-serif" font-size="12" lengthAdjust="spacingAndGlyphs" textLength="76" x="761.25" y="222.6543">ConfigStruct</text><line style="stroke: #A80036; stroke-width: 1.5;" x1="687" x2="879" y1="234.5" y2="234.5"/><ellipse cx="697" cy="245.5" fill="none" rx="3" ry="3" style="stroke: #038048; stroke-width: 1.0;"/><text fill="#000000" font-family="sans-serif" font-size="11" lengthAdjust="spacingAndGlyphs" textLength="168" x="706" y="248.7104">Storage StorageConfiguration</text><ellipse cx="697" cy="258.3047" fill="none" rx="3" ry="3" style="stroke: #038048; stroke-width: 1.0;"/><text fill="#000000" font-family="sans-serif" font-size="11" lengthAdjust="spacingAndGlyphs" textLength="108" x="706" y="261.5151">S3 S3Configuration</text><ellipse cx="697" cy="271.1094" fill="none" rx="3" ry="3" style="stroke: #038048; stroke-width: 1.0;"/><text fill="#000000" font-family="sans-serif" font-size="11" lengthAdjust="spacingAndGlyphs" textLength="168" x="706" y="274.3198">Logging LoggingConfiguration</text><line style="stroke: #A80036; stroke-width: 1.5;" x1="687" x2="879" y1="280.9141" y2="280.9141"/><!--MD5=[959739d0dd8840a1c96452e944a779a2]
class main.DBStorage--><rect fill="#FEFECE" filter="url(#f1iobwrl6716as)" height="188.8516" id="main.DBStorage" style="stroke: #A80036; stroke-width: 1.5;" width="638" x="915" y="151"/><ellipse cx="1197.75" cy="167" fill="#7FFFD4" rx="11" ry="11" style="stroke: #A80036; stroke-width: 1.0;"/><path d="M1196.9844,167.5625 Q1195.125,166.8594 1194.4766,166.0859 Q1193.8281,165.3125 1193.8281,164 Q1193.8281,162.3125 1194.9063,161.3438 Q1195.9844,160.375 1197.8594,160.375 Q1198.7188,160.375 1199.5703,160.5703 Q1200.4219,160.7656 1201.2656,161.1563 L1201.2656,163.5469 Q1200.4844,162.9844 1199.6641,162.6953 Q1198.8438,162.4063 1198.0469,162.4063 Q1197.1719,162.4063 1196.6953,162.7656 Q1196.2188,163.125 1196.2188,163.7813 Q1196.2188,164.2969 1196.5625,164.6328 Q1196.9063,164.9688 1198,165.375 L1199.0625,165.7813 Q1200.5469,166.3281 1201.2578,167.2344 Q1201.9688,168.1406 1201.9688,169.5156 Q1201.9688,171.3906 1200.8594,172.3125 Q1199.75,173.2344 1197.5,173.2344 Q1196.5781,173.2344 1195.6563,173.0156 Q1194.7344,172.7969 1193.875,172.375 L1193.875,169.8438 Q1194.8438,170.5313 1195.7656,170.875 Q1196.6875,171.2188 1197.5781,171.2188 Q1198.4844,171.2188 1198.9844,170.8047 Q1199.4844,170.3906 1199.4844,169.6563 Q1199.4844,169.0938 1199.1484,168.6797 Q1198.8125,168.2656 1198.1875,168.0156 L1196.9844,167.5625 Z "/><text fill="#000000" font-family="sans-serif" font-size="12" lengthAdjust="spacingAndGlyphs" textLength="64" x="1218.25" y="171.1543">DBStorage</text><line style="stroke: #A80036; stroke-width: 1.5;" x1="916" x2="1552" y1="183" y2="183"/><rect fill="none" height="6" style="stroke: #C82930; stroke-width: 1.0;" width="6" x="923" y="191"/><text fill="#000000" font-family="sans-serif" font-size="11" lengthAdjust="spacingAndGlyphs" textLength="107" x="935" y="197.2104">connection *sql.DB</text><rect fill="none" height="6" style="stroke: #C82930; stroke-width: 1.0;" width="6" x="923" y="203.8047"/><text fill="#000000" font-family="sans-serif" font-size="11" lengthAdjust="spacingAndGlyphs" textLength="132" x="935" y="210.0151">dbDriverType DBDriver</text><line style="stroke: #A80036; stroke-width: 1.5;" x1="916" x2="1552" y1="216.6094" y2="216.6094"/><ellipse cx="926" cy="227.6094" fill="#84BE84" rx="3" ry="3" style="stroke: #038048; stroke-width: 1.0;"/><text fill="#000000" font-family="sans-serif" font-size="11" lengthAdjust="spacingAndGlyphs" textLength="72" x="935" y="230.8198">Close() error</text><ellipse cx="926" cy="240.4141" fill="#84BE84" rx="3" ry="3" style="stroke: #038048; stroke-width: 1.0;"/><text fill="#000000" font-family="sans-serif" font-size="11" lengthAdjust="spacingAndGlyphs" textLength="227" x="935" y="243.6245">ReadListOfTables() ([]TableName, error)</text><ellipse cx="926" cy="253.2188" fill="#84BE84" rx="3" ry="3" style="stroke: #038048; stroke-width: 1.0;"/><text fill="#000000" font-family="sans-serif" font-size="11" lengthAdjust="spacingAndGlyphs" textLength="263" x="935" y="256.4292">ReadTable(tableName TableName) ([]M, error)</text><ellipse cx="926" cy="266.0234" fill="#84BE84" rx="3" ry="3" style="stroke: #038048; stroke-width: 1.0;"/><text fill="#000000" font-family="sans-serif" font-size="11" lengthAdjust="spacingAndGlyphs" textLength="612" x="935" y="269.2339">StoreTable(ctx context.Context, minioClient *minio.Client, bucketName string, tableName TableName) error</text><ellipse cx="926" cy="278.8281" fill="#84BE84" rx="3" ry="3" style="stroke: #038048; stroke-width: 1.0;"/><text fill="#000000" font-family="sans-serif" font-size="11" lengthAdjust="spacingAndGlyphs" textLength="271" x="935" y="282.0386">StoreTableIntoFile(tableName TableName) error</text><ellipse cx="926" cy="291.6328" fill="#84BE84" rx="3" ry="3" style="stroke: #038048; stroke-width: 1.0;"/><text fill="#000000" font-family="sans-serif" font-size="11" lengthAdjust="spacingAndGlyphs" textLength="308" x="935" y="294.8433">ReadRecordsCount(tableName TableName) (int, error)</text><ellipse cx="926" cy="304.4375" fill="#84BE84" rx="3" ry="3" style="stroke: #038048; stroke-width: 1.0;"/><text fill="#000000" font-family="sans-serif" font-size="11" lengthAdjust="spacingAndGlyphs" textLength="416" x="935" y="307.6479">RetrieveColumnTypes(tableName TableName) ([]*sql.ColumnType, error)</text><ellipse cx="926" cy="317.2422" fill="#84BE84" rx="3" ry="3" style="stroke: #038048; stroke-width: 1.0;"/><text fill="#000000" font-family="sans-serif" font-size="11" lengthAdjust="spacingAndGlyphs" textLength="491" x="935" y="320.4526">WriteTableContent(writer *csv.Writer, tableName TableName, colNames []string) error</text><ellipse cx="926" cy="330.0469" fill="#84BE84" rx="3" ry="3" style="stroke: #038048; stroke-width: 1.0;"/><text fill="#000000" font-family="sans-serif" font-size="11" lengthAdjust="spacingAndGlyphs" textLength="431" x="935" y="333.2573">StoreTableMetadataIntoFile(fileName string, tableNames []TableName) error</text><!--MD5=[ca9982b240b2ce06360eb0d9e8d7a870]
class main.LoggingConfiguration--><rect fill="#FEFECE" filter="url(#f1iobwrl6716as)" height="86.4141" id="main.LoggingConfiguration" style="stroke: #A80036; stroke-width: 1.5;" width="224" x="456" y="426"/><ellipse cx="498.9" cy="442" fill="#7FFFD4" rx="11" ry="11" style="stroke: #A80036; stroke-width: 1.0;"/><path d="M498.1344,442.5625 Q496.275,441.8594 495.6266,441.0859 Q494.9781,440.3125 494.9781,439 Q494.9781,437.3125 496.0563,436.3438 Q497.1344,435.375 499.0094,435.375 Q499.8688,435.375 500.7203,435.5703 Q501.5719,435.7656 502.4156,436.1563 L502.4156,438.5469 Q501.6344,437.9844 500.8141,437.6953 Q499.9938,437.4063 499.1969,437.4063 Q498.3219,437.4063 497.8453,437.7656 Q497.3688,438.125 497.3688,438.7813 Q497.3688,439.2969 497.7125,439.6328 Q498.0563,439.9688 499.15,440.375 L500.2125,440.7813 Q501.6969,441.3281 502.4078,442.2344 Q503.1188,443.1406 503.1188,444.5156 Q503.1188,446.3906 502.0094,447.3125 Q500.9,448.2344 498.65,448.2344 Q497.7281,448.2344 496.8063,448.0156 Q495.8844,447.7969 495.025,447.375 L495.025,444.8438 Q495.9938,445.5313 496.9156,445.875 Q497.8375,446.2188 498.7281,446.2188 Q499.6344,446.2188 500.1344,445.8047 Q500.6344,445.3906 500.6344,444.6563 Q500.6344,444.0938 500.2984,443.6797 Q499.9625,443.2656 499.3375,443.0156 L498.1344,442.5625 Z "/><text fill="#000000" font-family="sans-serif" font-size="12" lengthAdjust="spacingAndGlyphs" textLength="130" x="519.1" y="446.1543">LoggingConfiguration</text><line style="stroke: #A80036; stroke-width: 1.5;" x1="457" x2="679" y1="458" y2="458"/><ellipse cx="467" cy="469" fill="none" rx="3" ry="3" style="stroke: #038048; stroke-width: 1.0;"/><text fill="#000000" font-family="sans-serif" font-size="11" lengthAdjust="spacingAndGlyphs" textLength="64" x="476" y="472.2104">Debug bool</text><ellipse cx="467" cy="481.8047" fill="none" rx="3" ry="3" style="stroke: #038048; stroke-width: 1.0;"/><text fill="#000000" font-family="sans-serif" font-size="11" lengthAdjust="spacingAndGlyphs" textLength="86" x="476" y="485.0151">LogLevel string</text><ellipse cx="467" cy="494.6094" fill="none" rx="3" ry="3" style="stroke: #038048; stroke-width: 1.0;"/><text fill="#000000" font-family="sans-serif" font-size="11" lengthAdjust="spacingAndGlyphs" textLength="198" x="476" y="497.8198">LoggingToCloudWatchEnabled bool</text><line style="stroke: #A80036; stroke-width: 1.5;" x1="457" x2="679" y1="504.4141" y2="504.4141"/><!--MD5=[3b9462a8a2958e5a730d5c401b75f379]
class main.S3Configuration--><rect fill="#FEFECE" filter="url(#f1iobwrl6716as)" height="137.6328" id="main.S3Configuration" style="stroke: #A80036; stroke-width: 1.5;" width="158" x="715" y="400"/><ellipse cx="743.05" cy="416" fill="#7FFFD4" rx="11" ry="11" style="stroke: #A80036; stroke-width: 1.0;"/><path d="M742.2844,416.5625 Q740.425,415.8594 739.7766,415.0859 Q739.1281,414.3125 739.1281,413 Q739.1281,411.3125 740.2063,410.3438 Q741.2844,409.375 743.1594,409.375 Q744.0188,409.375 744.8703,409.5703 Q745.7219,409.7656 746.5656,410.1563 L746.5656,412.5469 Q745.7844,411.9844 744.9641,411.6953 Q744.1438,411.4063 743.3469,411.4063 Q742.4719,411.4063 741.9953,411.7656 Q741.5188,412.125 741.5188,412.7813 Q741.5188,413.2969 741.8625,413.6328 Q742.2063,413.9688 743.3,414.375 L744.3625,414.7813 Q745.8469,415.3281 746.5578,416.2344 Q747.2688,417.1406 747.2688,418.5156 Q747.2688,420.3906 746.1594,421.3125 Q745.05,422.2344 742.8,422.2344 Q741.8781,422.2344 740.9563,422.0156 Q740.0344,421.7969 739.175,421.375 L739.175,418.8438 Q740.1438,419.5313 741.0656,419.875 Q741.9875,420.2188 742.8781,420.2188 Q743.7844,420.2188 744.2844,419.8047 Q744.7844,419.3906 744.7844,418.6563 Q744.7844,418.0938 744.4484,417.6797 Q744.1125,417.2656 743.4875,417.0156 L742.2844,416.5625 Z "/><text fill="#000000" font-family="sans-serif" font-size="12" lengthAdjust="spacingAndGlyphs" textLength="97" x="759.95" y="420.1543">S3Configuration</text><line style="stroke: #A80036; stroke-width: 1.5;" x1="716" x2="872" y1="432" y2="432"/><ellipse cx="726" cy="443" fill="none" rx="3" ry="3" style="stroke: #038048; stroke-width: 1.0;"/><text fill="#000000" font-family="sans-serif" font-size="11" lengthAdjust="spacingAndGlyphs" textLength="64" x="735" y="446.2104">Type string</text><ellipse cx="726" cy="455.8047" fill="none" rx="3" ry="3" style="stroke: #038048; stroke-width: 1.0;"/><text fill="#000000" font-family="sans-serif" font-size="11" lengthAdjust="spacingAndGlyphs" textLength="107" x="735" y="459.0151">EndpointURL string</text><ellipse cx="726" cy="468.6094" fill="none" rx="3" ry="3" style="stroke: #038048; stroke-width: 1.0;"/><text fill="#000000" font-family="sans-serif" font-size="11" lengthAdjust="spacingAndGlyphs" textLength="97" x="735" y="471.8198">EndpointPort uint</text><ellipse cx="726" cy="481.4141" fill="none" rx="3" ry="3" style="stroke: #038048; stroke-width: 1.0;"/><text fill="#000000" font-family="sans-serif" font-size="11" lengthAdjust="spacingAndGlyphs" textLength="107" x="735" y="484.6245">AccessKeyID string</text><ellipse cx="726" cy="494.2188" fill="none" rx="3" ry="3" style="stroke: #038048; stroke-width: 1.0;"/><text fill="#000000" font-family="sans-serif" font-size="11" lengthAdjust="spacingAndGlyphs" textLength="132" x="735" y="497.4292">SecretAccessKey string</text><ellipse cx="726" cy="507.0234" fill="none" rx="3" ry="3" style="stroke: #038048; stroke-width: 1.0;"/><text fill="#000000" font-family="sans-serif" font-size="11" lengthAdjust="spacingAndGlyphs" textLength="69" x="735" y="510.2339">UseSSL bool</text><ellipse cx="726" cy="519.8281" fill="none" rx="3" ry="3" style="stroke: #038048; stroke-width: 1.0;"/><text fill="#000000" font-family="sans-serif" font-size="11" lengthAdjust="spacingAndGlyphs" textLength="74" x="735" y="523.0386">Bucket string</text><line style="stroke: #A80036; stroke-width: 1.5;" x1="716" x2="872" y1="529.6328" y2="529.6328"/><!--MD5=[8e05dfc5e7366a5d793b608004a40c87]
class main.Storage--><rect fill="#FEFECE" filter="url(#f1iobwrl6716as)" height="86.4141" id="main.Storage" style="stroke: #A80036; stroke-width: 1.5;" width="253" x="908.5" y="426"/><ellipse cx="1007.25" cy="442" fill="#B4A7E5" rx="11" ry="11" style="stroke: #A80036; stroke-width: 1.0;"/><path d="M1003.6719,437.7656 L1003.6719,435.6094 L1011.0625,435.6094 L1011.0625,437.7656 L1008.5938,437.7656 L1008.5938,445.8438 L1011.0625,445.8438 L1011.0625,448 L1003.6719,448 L1003.6719,445.8438 L1006.1406,445.8438 L1006.1406,437.7656 L1003.6719,437.7656 Z "/><text fill="#000000" font-family="sans-serif" font-size="12" font-style="italic" lengthAdjust="spacingAndGlyphs" textLength="47" x="1027.75" y="446.1543">Storage</text><line style="stroke: #A80036; stroke-width: 1.5;" x1="909.5" x2="1160.5" y1="458" y2="458"/><line style="stroke: #A80036; stroke-width: 1.5;" x1="909.5" x2="1160.5" y1="466" y2="466"/><ellipse cx="919.5" cy="477" fill="#84BE84" rx="3" ry="3" style="stroke: #038048; stroke-width: 1.0;"/><text fill="#000000" font-family="sans-serif" font-size="11" lengthAdjust="spacingAndGlyphs" textLength="72" x="928.5" y="480.2104">Close() error</text><ellipse cx="919.5" cy="489.8047" fill="#84BE84" rx="3" ry="3" style="stroke: #038048; stroke-width: 1.0;"/><text fill="#000000" font-family="sans-serif" font-size="11" lengthAdjust="spacingAndGlyphs" textLength="227" x="928.5" y="493.0151">ReadListOfTables() ([]TableName, error)</text><ellipse cx="919.5" cy="502.6094" fill="#84BE84" rx="3" ry="3" style="stroke: #038048; stroke-width: 1.0;"/><text fill="#000000" font-family="sans-serif" font-size="11" lengthAdjust="spacingAndGlyphs" textLength="198" x="928.5" y="505.8198">ReadTable(tableName string) error</text><!--MD5=[d64e05e1fbe8a490be451fecb6c50531]
class main.StorageConfiguration--><rect fill="#FEFECE" filter="url(#f1iobwrl6716as)" height="163.2422" id="main.StorageConfiguration" style="stroke: #A80036; stroke-width: 1.5;" width="163" x="486.5" y="598"/><ellipse cx="502.85" cy="614" fill="#7FFFD4" rx="11" ry="11" style="stroke: #A80036; stroke-width: 1.0;"/><path d="M502.0844,614.5625 Q500.225,613.8594 499.5766,613.0859 Q498.9281,612.3125 498.9281,611 Q498.9281,609.3125 500.0063,608.3438 Q501.0844,607.375 502.9594,607.375 Q503.8188,607.375 504.6703,607.5703 Q505.5219,607.7656 506.3656,608.1563 L506.3656,610.5469 Q505.5844,609.9844 504.7641,609.6953 Q503.9438,609.4063 503.1469,609.4063 Q502.2719,609.4063 501.7953,609.7656 Q501.3188,610.125 501.3188,610.7813 Q501.3188,611.2969 501.6625,611.6328 Q502.0063,611.9688 503.1,612.375 L504.1625,612.7813 Q505.6469,613.3281 506.3578,614.2344 Q507.0688,615.1406 507.0688,616.5156 Q507.0688,618.3906 505.9594,619.3125 Q504.85,620.2344 502.6,620.2344 Q501.6781,620.2344 500.7563,620.0156 Q499.8344,619.7969 498.975,619.375 L498.975,616.8438 Q499.9438,617.5313 500.8656,617.875 Q501.7875,618.2188 502.6781,618.2188 Q503.5844,618.2188 504.0844,617.8047 Q504.5844,617.3906 504.5844,616.6563 Q504.5844,616.0938 504.2484,615.6797 Q503.9125,615.2656 503.2875,615.0156 L502.0844,614.5625 Z "/><text fill="#000000" font-family="sans-serif" font-size="12" lengthAdjust="spacingAndGlyphs" textLength="128" x="517.15" y="618.1543">StorageConfiguration</text><line style="stroke: #A80036; stroke-width: 1.5;" x1="487.5" x2="648.5" y1="630" y2="630"/><ellipse cx="497.5" cy="641" fill="none" rx="3" ry="3" style="stroke: #038048; stroke-width: 1.0;"/><text fill="#000000" font-family="sans-serif" font-size="11" lengthAdjust="spacingAndGlyphs" textLength="71" x="506.5" y="644.2104">Driver string</text><ellipse cx="497.5" cy="653.8047" fill="none" rx="3" ry="3" style="stroke: #038048; stroke-width: 1.0;"/><text fill="#000000" font-family="sans-serif" font-size="11" lengthAdjust="spacingAndGlyphs" textLength="137" x="506.5" y="657.0151">SQLiteDataSource string</text><ellipse cx="497.5" cy="666.6094" fill="none" rx="3" ry="3" style="stroke: #038048; stroke-width: 1.0;"/><text fill="#000000" font-family="sans-serif" font-size="11" lengthAdjust="spacingAndGlyphs" textLength="110" x="506.5" y="669.8198">PGUsername string</text><ellipse cx="497.5" cy="679.4141" fill="none" rx="3" ry="3" style="stroke: #038048; stroke-width: 1.0;"/><text fill="#000000" font-family="sans-serif" font-size="11" lengthAdjust="spacingAndGlyphs" textLength="106" x="506.5" y="682.6245">PGPassword string</text><ellipse cx="497.5" cy="692.2188" fill="none" rx="3" ry="3" style="stroke: #038048; stroke-width: 1.0;"/><text fill="#000000" font-family="sans-serif" font-size="11" lengthAdjust="spacingAndGlyphs" textLength="77" x="506.5" y="695.4292">PGHost string</text><ellipse cx="497.5" cy="705.0234" fill="none" rx="3" ry="3" style="stroke: #038048; stroke-width: 1.0;"/><text fill="#000000" font-family="sans-serif" font-size="11" lengthAdjust="spacingAndGlyphs" textLength="57" x="506.5" y="708.2339">PGPort int</text><ellipse cx="497.5" cy="717.8281" fill="none" rx="3" ry="3" style="stroke: #038048; stroke-width: 1.0;"/><text fill="#000000" font-family="sans-serif" font-size="11" lengthAdjust="spacingAndGlyphs" textLength="101" x="506.5" y="721.0386">PGDBName string</text><ellipse cx="497.5" cy="730.6328" fill="none" rx="3" ry="3" style="stroke: #038048; stroke-width: 1.0;"/><text fill="#000000" font-family="sans-serif" font-size="11" lengthAdjust="spacingAndGlyphs" textLength="95" x="506.5" y="733.8433">PGParams string</text><ellipse cx="497.5" cy="743.4375" fill="none" rx="3" ry="3" style="stroke: #038048; stroke-width: 1.0;"/><text fill="#000000" font-family="sans-serif" font-size="11" lengthAdjust="spacingAndGlyphs" textLength="114" x="506.5" y="746.6479">LogSQLQueries bool</text><line style="stroke: #A80036; stroke-width: 1.5;" x1="487.5" x2="648.5" y1="753.2422" y2="753.2422"/><!--MD5=[68f019fc1468c1517f9a8eed9d9555dd]
class main.DBDriver--><rect fill="#FEFECE" filter="url(#f1iobwrl6716as)" height="48" id="main.DBDriver" style="stroke: #A80036; stroke-width: 1.5;" width="85" x="364.5" y="221.5"/><ellipse cx="379.5" cy="237.5" fill="#FF7700" rx="11" ry="11" style="stroke: #A80036; stroke-width: 1.0;"/><path d="M380.8438,244 L378.3906,244 L378.3906,233.75 L375.25,233.75 L375.25,231.6094 L383.9844,231.6094 L383.9844,233.75 L380.8438,233.75 L380.8438,244 Z "/><text fill="#000000" font-family="sans-serif" font-size="12" lengthAdjust="spacingAndGlyphs" textLength="53" x="393.5" y="241.6543">DBDriver</text><line style="stroke: #A80036; stroke-width: 1.5;" x1="365.5" x2="448.5" y1="253.5" y2="253.5"/><line style="stroke: #A80036; stroke-width: 1.5;" x1="365.5" x2="448.5" y1="261.5" y2="261.5"/><!--MD5=[2799a32dbe01bc6769c12798c81ed486]
class main.M--><rect fill="#FEFECE" filter="url(#f1iobwrl6716as)" height="48" id="main.M" style="stroke: #A80036; stroke-width: 1.5;" width="42" x="88" y="445"/><ellipse cx="103" cy="461" fill="#FF7700" rx="11" ry="11" style="stroke: #A80036; stroke-width: 1.0;"/><path d="M104.3438,467.5 L101.8906,467.5 L101.8906,457.25 L98.75,457.25 L98.75,455.1094 L107.4844,455.1094 L107.4844,457.25 L104.3438,457.25 L104.3438,467.5 Z "/><text fill="#000000" font-family="sans-serif" font-size="12" lengthAdjust="spacingAndGlyphs" textLength="10" x="117" y="465.1543">M</text><line style="stroke: #A80036; stroke-width: 1.5;" x1="89" x2="129" y1="477" y2="477"/><line style="stroke: #A80036; stroke-width: 1.5;" x1="89" x2="129" y1="485" y2="485"/><!--MD5=[2a662afa4c0a554c4f11899e3cf7bc88]
class main.TableName--><rect fill="#FEFECE" filter="url(#f1iobwrl6716as)" height="48" id="main.TableName" style="stroke: #A80036; stroke-width: 1.5;" width="99" x="230.5" y="221.5"/><ellipse cx="245.5" cy="237.5" fill="#FF7700" rx="11" ry="11" style="stroke: #A80036; stroke-width: 1.0;"/><path d="M246.8438,244 L244.3906,244 L244.3906,233.75 L241.25,233.75 L241.25,231.6094 L249.9844,231.6094 L249.9844,233.75 L246.8438,233.75 L246.8438,244 Z "/><text fill="#000000" font-family="sans-serif" font-size="12" lengthAdjust="spacingAndGlyphs" textLength="67" x="259.5" y="241.6543">TableName</text><line style="stroke: #A80036; stroke-width: 1.5;" x1="231.5" x2="328.5" y1="253.5" y2="253.5"/><line style="stroke: #A80036; stroke-width: 1.5;" x1="231.5" x2="328.5" y1="261.5" y2="261.5"/><!--MD5=[667ddaa179acf6386ec64f3a497a00aa]
class main.<font color=blue>map</font>[string]<font color=blue>interface</font>{}--><rect fill="#FEFECE" filter="url(#f1iobwrl6716as)" height="48" id="main.&lt;font color=blue&gt;map&lt;/font&gt;[string]&lt;font color=blue&gt;interface&lt;/font&gt;{}" style="stroke: #A80036; stroke-width: 1.5;" width="173" x="22.5" y="221.5"/><ellipse cx="37.5" cy="237.5" fill="#ADD1B2" rx="11" ry="11" style="stroke: #A80036; stroke-width: 1.0;"/><path d="M40.4688,243.1406 Q39.8906,243.4375 39.25,243.5859 Q38.6094,243.7344 37.9063,243.7344 Q35.4063,243.7344 34.0859,242.0859 Q32.7656,240.4375 32.7656,237.3125 Q32.7656,234.1875 34.0859,232.5313 Q35.4063,230.875 37.9063,230.875 Q38.6094,230.875 39.2578,231.0313 Q39.9063,231.1875 40.4688,231.4844 L40.4688,234.2031 Q39.8438,233.625 39.25,233.3516 Q38.6563,233.0781 38.0313,233.0781 Q36.6875,233.0781 36,234.1484 Q35.3125,235.2188 35.3125,237.3125 Q35.3125,239.4063 36,240.4766 Q36.6875,241.5469 38.0313,241.5469 Q38.6563,241.5469 39.25,241.2734 Q39.8438,241 40.4688,240.4219 L40.4688,243.1406 Z "/><text fill="#0000FF" font-family="sans-serif" font-size="12" lengthAdjust="spacingAndGlyphs" textLength="27" x="51.5" y="241.6543">map</text><text fill="#000000" font-family="sans-serif" font-size="12" lengthAdjust="spacingAndGlyphs" textLength="45" x="78.5" y="241.6543">[string]</text><text fill="#0000FF" font-family="sans-serif" font-size="12" lengthAdjust="spacingAndGlyphs" textLength="53" x="123.5" y="241.6543">interface</text><text fill="#000000" font-family="sans-serif" font-size="12" lengthAdjust="spacingAndGlyphs" textLength="16" x="176.5" y="241.6543">{}</text><line style="stroke: #A80036; stroke-width: 1.5;" x1="23.5" x2="194.5" y1="253.5" y2="253.5"/><line style="stroke: #A80036; stroke-width: 1.5;" x1="23.5" x2="194.5" y1="261.5" y2="261.5"/><!--MD5=[2236f6c5d9deadb4f6bceeb4cf3ac6c7]
class __builtin__.int--><rect fill="#FEFECE" filter="url(#f1iobwrl6716as)" height="48" id="__builtin__.int" style="stroke: #A80036; stroke-width: 1.5;" width="48" x="366" y="43"/><ellipse cx="381" cy="59" fill="#ADD1B2" rx="11" ry="11" style="stroke: #A80036; stroke-width: 1.0;"/><path d="M383.9688,64.6406 Q383.3906,64.9375 382.75,65.0859 Q382.1094,65.2344 381.4063,65.2344 Q378.9063,65.2344 377.5859,63.5859 Q376.2656,61.9375 376.2656,58.8125 Q376.2656,55.6875 377.5859,54.0313 Q378.9063,52.375 381.4063,52.375 Q382.1094,52.375 382.7578,52.5313 Q383.4063,52.6875 383.9688,52.9844 L383.9688,55.7031 Q383.3438,55.125 382.75,54.8516 Q382.1563,54.5781 381.5313,54.5781 Q380.1875,54.5781 379.5,55.6484 Q378.8125,56.7188 378.8125,58.8125 Q378.8125,60.9063 379.5,61.9766 Q380.1875,63.0469 381.5313,63.0469 Q382.1563,63.0469 382.75,62.7734 Q383.3438,62.5 383.9688,61.9219 L383.9688,64.6406 Z "/><text fill="#000000" font-family="sans-serif" font-size="12" lengthAdjust="spacingAndGlyphs" textLength="16" x="395" y="63.1543">int</text><line style="stroke: #A80036; stroke-width: 1.5;" x1="367" x2="413" y1="75" y2="75"/><line style="stroke: #A80036; stroke-width: 1.5;" x1="367" x2="413" y1="83" y2="83"/><!--MD5=[aaadaf5c3ad6e0e0dd8a1e035309d301]
class __builtin__.string--><rect fill="#FEFECE" filter="url(#f1iobwrl6716as)" height="48" id="__builtin__.string" style="stroke: #A80036; stroke-width: 1.5;" width="67" x="263.5" y="43"/><ellipse cx="278.5" cy="59" fill="#ADD1B2" rx="11" ry="11" style="stroke: #A80036; stroke-width: 1.0;"/><path d="M281.4688,64.6406 Q280.8906,64.9375 280.25,65.0859 Q279.6094,65.2344 278.9063,65.2344 Q276.4063,65.2344 275.0859,63.5859 Q273.7656,61.9375 273.7656,58.8125 Q273.7656,55.6875 275.0859,54.0313 Q276.4063,52.375 278.9063,52.375 Q279.6094,52.375 280.2578,52.5313 Q280.9063,52.6875 281.4688,52.9844 L281.4688,55.7031 Q280.8438,55.125 280.25,54.8516 Q279.6563,54.5781 279.0313,54.5781 Q277.6875,54.5781 277,55.6484 Q276.3125,56.7188 276.3125,58.8125 Q276.3125,60.9063 277,61.9766 Q277.6875,63.0469 279.0313,63.0469 Q279.6563,63.0469 280.25,62.7734 Q280.8438,62.5 281.4688,61.9219 L281.4688,64.6406 Z "/><text fill="#000000" font-family="sans-serif" font-size="12" lengthAdjust="spacingAndGlyphs" textLength="35" x="292.5" y="63.1543">string</text><line style="stroke: #A80036; stroke-width: 1.5;" x1="264.5" x2="329.5" y1="75" y2="75"/><line style="stroke: #A80036; stroke-width: 1.5;" x1="264.5" x2="329.5" y1="83" y2="83"/><!--MD5=[67a6f82f777d6cac78c31f8ff9273b2f]
reverse link __builtin__.int to main.DBDriver--><path d="M392.8068,96.4716 C396.1294,131.3591 401.6003,188.8028 404.6893,221.238 " fill="none" id="__builtin__.int&lt;-main.DBDriver" style="stroke: #A80036; stroke-width: 1.0; stroke-dasharray: 7.0,7.0;"/><rect fill="#FFFFFF" height="10" style="stroke: #A80036; stroke-width: 1.5;" width="10" x="387.2927" y="86.0733"/><!--MD5=[4cdc011e395f51d077d9aed098cfd608]
reverse link __builtin__.string to main.TableName--><path d="M294.1932,96.4716 C290.8706,131.3591 285.3997,188.8028 282.3107,221.238 " fill="none" id="__builtin__.string&lt;-main.TableName" style="stroke: #A80036; stroke-width: 1.0; stroke-dasharray: 7.0,7.0;"/><rect fill="#FFFFFF" height="10" style="stroke: #A80036; stroke-width: 1.5;" width="10" x="289.7073" y="86.0733"/><!--MD5=[2a4aa557d1c74cdf5bf1e3446a808b8f]
reverse link main.<font color=blue>map</font>[string]<font color=blue>interface</font>{} to main.M--><path d="M109,275.0866 C109,319.7097 109,403.3939 109,444.6861 " fill="none" id="main.&lt;font color=blue&gt;map&lt;/font&gt;[string]&lt;font color=blue&gt;interface&lt;/font&gt;{}&lt;-main.M" style="stroke: #A80036; stroke-width: 1.0; stroke-dasharray: 7.0,7.0;"/><rect fill="#FFFFFF" height="10" style="stroke: #A80036; stroke-width: 1.5;" width="10" x="104" y="264.8439"/><!--MD5=[75cfa4d477701ab5f2f7966150e426ec]
link main.CliFlags to main.ConfigStruct--><!--MD5=[aac6591af0a4dc12b2d82fc91ce09bc2]
link main.ConfigStruct to main.DBStorage--><!--MD5=[9c30e92e310cc011a8afc8f013b2b95f]
link main.CliFlags to main.LoggingConfiguration--><!--MD5=[c0cba6e73aba1abb67c75a54084c0c9d]
link main.LoggingConfiguration to main.S3Configuration--><!--MD5=[333141ccdabbf16a5d17c19936f56dcd]
link main.S3Configuration to main.Storage--><!--MD5=[1233f02486bc040eeebbd6d3251d75d4]
link main.LoggingConfiguration to main.StorageConfiguration--><!--MD5=[95c670940c903f47925c320764275e51]
@startuml
namespace main {
    class CliFlags << (S,Aquamarine) >> {
        + ShowVersion bool
        + ShowAuthors bool
        + ShowConfiguration bool
        + PrintSummaryTable bool
        + Output string
        + CheckS3Connection bool

    }
    class ConfigStruct << (S,Aquamarine) >> {
        + Storage StorageConfiguration
        + S3 S3Configuration
        + Logging LoggingConfiguration

    }
    class DBStorage << (S,Aquamarine) >> {
        - connection *sql.DB
        - dbDriverType DBDriver

        + Close() error
        + ReadListOfTables() ([]TableName, error)
        + ReadTable(tableName TableName) ([]M, error)
        + StoreTable(ctx context.Context, minioClient *minio.Client, bucketName string, tableName TableName) error
        + StoreTableIntoFile(tableName TableName) error
        + ReadRecordsCount(tableName TableName) (int, error)
        + RetrieveColumnTypes(tableName TableName) ([]*sql.ColumnType, error)
        + WriteTableContent(writer *csv.Writer, tableName TableName, colNames []string) error
        + StoreTableMetadataIntoFile(fileName string, tableNames []TableName) error

    }
    class LoggingConfiguration << (S,Aquamarine) >> {
        + Debug bool
        + LogLevel string
        + LoggingToCloudWatchEnabled bool

    }
    class S3Configuration << (S,Aquamarine) >> {
        + Type string
        + EndpointURL string
        + EndpointPort uint
        + AccessKeyID string
        + SecretAccessKey string
        + UseSSL bool
        + Bucket string

    }
    interface Storage  {
        + Close() error
        + ReadListOfTables() ([]TableName, error)
        + ReadTable(tableName string) error

    }
    class StorageConfiguration << (S,Aquamarine) >> {
        + Driver string
        + SQLiteDataSource string
        + PGUsername string
        + PGPassword string
        + PGHost string
        + PGPort int
        + PGDBName string
        + PGParams string
        + LogSQLQueries bool

    }
    class main.DBDriver << (T, #FF7700) >>  {
    }
    class main.M << (T, #FF7700) >>  {
    }
    class main.TableName << (T, #FF7700) >>  {
    }
}


"__builtin__.int" #.. "main.DBDriver"
"__builtin__.string" #.. "main.TableName"
"main.<font color=blue>map</font>[string]<font color=blue>interface</font>{}" #.. "main.M"
@enduml

PlantUML version 1.2019.12(Sun Nov 03 11:24:54 CET 2019)
(GPL source distribution)
Java Runtime: OpenJDK Runtime Environment
JVM: OpenJDK 64-Bit Server VM
Java Version: 1.8.0_191-b12
Operating System: Linux
Default Encoding: UTF-8
Language: en
Country: US
--></g></svg>